<?xml version="1.0" encoding="UTF-8"?>
<svg id="Layer_1" data-name="Layer 1" xmlns="http://www.w3.org/2000/svg" version="1.1" viewBox="0 0 29.20842 20">
  <defs>
    <style>
      .cls-1 {
        fill: #fff;
        stroke-width: 0px;
      }
    </style>
  </defs>
  <path class="cls-1" d="M28.20458,3.12303c-.32646-1.22929-1.28836-2.19742-2.50971-2.52601-2.21377-.59702-11.09066-.59702-11.09066-.59702,0,0-8.87689,0-11.09067.59702-1.22134.32859-2.18324,1.29672-2.50971,2.52601-.59318,2.22814-.59318,6.87696-.59318,6.87696,0,0,0,4.64883.59318,6.87698.32647,1.22928,1.28836,2.19741,2.50971,2.52599,2.21377.59704,11.09067.59704,11.09067.59704,0,0,8.87688,0,11.09066-.59704,1.22134-.32858,2.18325-1.29671,2.50971-2.52599.59317-2.22815.59317-6.87698.59317-6.87698,0,0,0-4.64882-.59317-6.87696ZM11.70098,14.22078V5.77922l7.41935,4.22091-7.41935,4.22065Z"/>
</svg>